<svg width="500" height="500" viewBox="0 0 500 500" fill="none" xmlns="http://www.w3.org/2000/svg">
<rect width="500" height="500" fill="#0C0A09"/>
<rect width="500" height="208" fill="#FACC15"/>
<rect x="176" y="305" width="160" height="160" rx="10" fill="#D9D9D9" fill-opacity="0.35"/>
<path d="M54.6364 37.3636V49H53.2727L46.9318 39.8636H46.8182V49H45.4091V37.3636H46.7727L53.1364 46.5227H53.25V37.3636H54.6364ZM59.8423 49.2045C59.2893 49.2045 58.7874 49.1004 58.3366 48.892C57.8859 48.6799 57.5279 48.375 57.2628 47.9773C56.9976 47.5758 56.8651 47.0909 56.8651 46.5227C56.8651 46.0227 56.9635 45.6174 57.1605 45.3068C57.3575 44.9924 57.6207 44.7462 57.9503 44.5682C58.2798 44.3902 58.6435 44.2576 59.0412 44.1705C59.4427 44.0795 59.8461 44.0076 60.2514 43.9545C60.7817 43.8864 61.2116 43.8352 61.5412 43.8011C61.8745 43.7633 62.117 43.7008 62.2685 43.6136C62.4238 43.5265 62.5014 43.375 62.5014 43.1591V43.1136C62.5014 42.553 62.348 42.1174 62.0412 41.8068C61.7382 41.4962 61.2779 41.3409 60.6605 41.3409C60.0204 41.3409 59.5185 41.4811 59.1548 41.7614C58.7912 42.0417 58.5355 42.3409 58.3878 42.6591L57.1151 42.2045C57.3423 41.6742 57.6454 41.2614 58.0241 40.9659C58.4067 40.6667 58.8234 40.4583 59.2741 40.3409C59.7287 40.2197 60.1757 40.1591 60.6151 40.1591C60.8954 40.1591 61.2173 40.1932 61.581 40.2614C61.9484 40.3258 62.3026 40.4602 62.6435 40.6648C62.9882 40.8693 63.2741 41.178 63.5014 41.5909C63.7287 42.0038 63.8423 42.5568 63.8423 43.25V49H62.5014V47.8182H62.4332C62.3423 48.0076 62.1908 48.2102 61.9787 48.4261C61.7666 48.642 61.4844 48.8258 61.1321 48.9773C60.7798 49.1288 60.3499 49.2045 59.8423 49.2045ZM60.0469 48C60.5772 48 61.0241 47.8958 61.3878 47.6875C61.7552 47.4792 62.0317 47.2102 62.2173 46.8807C62.4067 46.5511 62.5014 46.2045 62.5014 45.8409V44.6136C62.4446 44.6818 62.3196 44.7443 62.1264 44.8011C61.937 44.8542 61.7173 44.9015 61.4673 44.9432C61.2211 44.9811 60.9806 45.0152 60.7457 45.0455C60.5147 45.072 60.3272 45.0947 60.1832 45.1136C59.8348 45.1591 59.509 45.233 59.206 45.3352C58.9067 45.4337 58.6643 45.5833 58.4787 45.7841C58.2969 45.9811 58.206 46.25 58.206 46.5909C58.206 47.0568 58.3783 47.4091 58.723 47.6477C59.0715 47.8826 59.5128 48 60.0469 48ZM66.2898 49V40.2727H67.5852V41.6364H67.6989C67.8807 41.1705 68.1742 40.8087 68.5795 40.5511C68.9848 40.2898 69.4716 40.1591 70.0398 40.1591C70.6155 40.1591 71.0947 40.2898 71.4773 40.5511C71.8636 40.8087 72.1648 41.1705 72.3807 41.6364H72.4716C72.6951 41.1856 73.0303 40.8277 73.4773 40.5625C73.9242 40.2936 74.4602 40.1591 75.0852 40.1591C75.8655 40.1591 76.5038 40.4034 77 40.892C77.4962 41.3769 77.7443 42.1326 77.7443 43.1591V49H76.4034V43.1591C76.4034 42.5152 76.2273 42.0549 75.875 41.7784C75.5227 41.5019 75.108 41.3636 74.6307 41.3636C74.017 41.3636 73.5417 41.5492 73.2045 41.9205C72.8674 42.2879 72.6989 42.7538 72.6989 43.3182V49H71.3352V43.0227C71.3352 42.5265 71.1742 42.1269 70.8523 41.8239C70.5303 41.517 70.1155 41.3636 69.608 41.3636C69.2595 41.3636 68.9337 41.4564 68.6307 41.642C68.3314 41.8277 68.089 42.0852 67.9034 42.4148C67.7216 42.7405 67.6307 43.1174 67.6307 43.5455V49H66.2898ZM83.8551 49.1818C83.0142 49.1818 82.2888 48.9962 81.679 48.625C81.0729 48.25 80.6051 47.7273 80.2756 47.0568C79.9498 46.3826 79.7869 45.5985 79.7869 44.7045C79.7869 43.8106 79.9498 43.0227 80.2756 42.3409C80.6051 41.6553 81.0634 41.1212 81.6506 40.7386C82.2415 40.3523 82.9309 40.1591 83.7188 40.1591C84.1733 40.1591 84.6222 40.2348 85.0653 40.3864C85.5085 40.5379 85.9119 40.7841 86.2756 41.125C86.6392 41.4621 86.929 41.9091 87.1449 42.4659C87.3608 43.0227 87.4688 43.7083 87.4688 44.5227V45.0909H80.7415V43.9318H86.1051C86.1051 43.4394 86.0066 43 85.8097 42.6136C85.6165 42.2273 85.34 41.9223 84.9801 41.6989C84.6241 41.4754 84.2036 41.3636 83.7188 41.3636C83.1847 41.3636 82.7225 41.4962 82.3324 41.7614C81.946 42.0227 81.6487 42.3636 81.4403 42.7841C81.232 43.2045 81.1278 43.6553 81.1278 44.1364V44.9091C81.1278 45.5682 81.2415 46.1269 81.4688 46.5852C81.6998 47.0398 82.0199 47.3864 82.429 47.625C82.8381 47.8598 83.3134 47.9773 83.8551 47.9773C84.2074 47.9773 84.5256 47.928 84.8097 47.8295C85.0975 47.7273 85.3456 47.5758 85.554 47.375C85.7623 47.1705 85.9233 46.9167 86.0369 46.6136L87.3324 46.9773C87.196 47.4167 86.9669 47.803 86.6449 48.1364C86.3229 48.4659 85.9252 48.7235 85.4517 48.9091C84.9782 49.0909 84.446 49.1818 83.8551 49.1818ZM90.4858 49.0909C90.2055 49.0909 89.965 48.9905 89.7642 48.7898C89.5634 48.589 89.4631 48.3485 89.4631 48.0682C89.4631 47.7879 89.5634 47.5473 89.7642 47.3466C89.965 47.1458 90.2055 47.0455 90.4858 47.0455C90.7661 47.0455 91.0066 47.1458 91.2074 47.3466C91.4081 47.5473 91.5085 47.7879 91.5085 48.0682C91.5085 48.2538 91.4612 48.4242 91.3665 48.5795C91.2756 48.7348 91.1525 48.8598 90.9972 48.9545C90.8456 49.0455 90.6752 49.0909 90.4858 49.0909ZM90.4858 42.6136C90.2055 42.6136 89.965 42.5133 89.7642 42.3125C89.5634 42.1117 89.4631 41.8712 89.4631 41.5909C89.4631 41.3106 89.5634 41.0701 89.7642 40.8693C89.965 40.6686 90.2055 40.5682 90.4858 40.5682C90.7661 40.5682 91.0066 40.6686 91.2074 40.8693C91.4081 41.0701 91.5085 41.3106 91.5085 41.5909C91.5085 41.7765 91.4612 41.947 91.3665 42.1023C91.2756 42.2576 91.1525 42.3826 90.9972 42.4773C90.8456 42.5682 90.6752 42.6136 90.4858 42.6136Z" fill="white"/>
<path d="M53.3636 65C53.2386 64.6174 53.0739 64.2746 52.8693 63.9716C52.6686 63.6648 52.428 63.4034 52.1477 63.1875C51.8712 62.9716 51.5568 62.8068 51.2045 62.6932C50.8523 62.5795 50.4659 62.5227 50.0455 62.5227C49.3561 62.5227 48.7292 62.7008 48.1648 63.0568C47.6004 63.4129 47.1515 63.9375 46.8182 64.6307C46.4848 65.3239 46.3182 66.1742 46.3182 67.1818C46.3182 68.1894 46.4867 69.0398 46.8239 69.733C47.161 70.4261 47.6174 70.9508 48.1932 71.3068C48.7689 71.6629 49.4167 71.8409 50.1364 71.8409C50.803 71.8409 51.3902 71.6989 51.8977 71.4148C52.4091 71.1269 52.8068 70.7216 53.0909 70.1989C53.3788 69.6723 53.5227 69.053 53.5227 68.3409L53.9545 68.4318H50.4545V67.1818H54.8864V68.4318C54.8864 69.3902 54.6818 70.2235 54.2727 70.9318C53.8674 71.6402 53.3068 72.1894 52.5909 72.5795C51.8788 72.9659 51.0606 73.1591 50.1364 73.1591C49.1061 73.1591 48.2008 72.9167 47.4205 72.4318C46.6439 71.947 46.0379 71.2576 45.6023 70.3636C45.1705 69.4697 44.9545 68.4091 44.9545 67.1818C44.9545 66.2614 45.0777 65.4337 45.3239 64.6989C45.5739 63.9602 45.9261 63.3314 46.3807 62.8125C46.8352 62.2936 47.3731 61.8958 47.9943 61.6193C48.6155 61.3428 49.2992 61.2045 50.0455 61.2045C50.6591 61.2045 51.2311 61.2973 51.7614 61.483C52.2955 61.6648 52.7708 61.9242 53.1875 62.2614C53.608 62.5947 53.9583 62.9943 54.2386 63.4602C54.5189 63.9223 54.7121 64.4356 54.8182 65H53.3636ZM60.777 73.1818C59.9361 73.1818 59.2107 72.9962 58.6009 72.625C57.9948 72.25 57.527 71.7273 57.1974 71.0568C56.8717 70.3826 56.7088 69.5985 56.7088 68.7045C56.7088 67.8106 56.8717 67.0227 57.1974 66.3409C57.527 65.6553 57.9853 65.1212 58.5724 64.7386C59.1634 64.3523 59.8527 64.1591 60.6406 64.1591C61.0952 64.1591 61.544 64.2348 61.9872 64.3864C62.4304 64.5379 62.8338 64.7841 63.1974 65.125C63.5611 65.4621 63.8509 65.9091 64.0668 66.4659C64.2827 67.0227 64.3906 67.7083 64.3906 68.5227V69.0909H57.6634V67.9318H63.027C63.027 67.4394 62.9285 67 62.7315 66.6136C62.5384 66.2273 62.2618 65.9223 61.902 65.6989C61.5459 65.4754 61.1255 65.3636 60.6406 65.3636C60.1065 65.3636 59.6444 65.4962 59.2543 65.7614C58.8679 66.0227 58.5705 66.3636 58.3622 66.7841C58.1539 67.2045 58.0497 67.6553 58.0497 68.1364V68.9091C58.0497 69.5682 58.1634 70.1269 58.3906 70.5852C58.6217 71.0398 58.9418 71.3864 59.3509 71.625C59.7599 71.8598 60.2353 71.9773 60.777 71.9773C61.1293 71.9773 61.4474 71.928 61.7315 71.8295C62.0194 71.7273 62.2675 71.5758 62.4759 71.375C62.6842 71.1705 62.8452 70.9167 62.9588 70.6136L64.2543 70.9773C64.1179 71.4167 63.8887 71.803 63.5668 72.1364C63.2448 72.4659 62.8471 72.7235 62.3736 72.9091C61.9001 73.0909 61.3679 73.1818 60.777 73.1818ZM67.7713 67.75V73H66.4304V64.2727H67.7259V65.6364H67.8395C68.044 65.1932 68.3546 64.8371 68.7713 64.5682C69.188 64.2955 69.7259 64.1591 70.3849 64.1591C70.9759 64.1591 71.4929 64.2803 71.9361 64.5227C72.3793 64.7614 72.724 65.125 72.9702 65.6136C73.2164 66.0985 73.3395 66.7121 73.3395 67.4545V73H71.9986V67.5455C71.9986 66.8598 71.8205 66.3258 71.4645 65.9432C71.1084 65.5568 70.6198 65.3636 69.9986 65.3636C69.5705 65.3636 69.188 65.4564 68.8509 65.642C68.5175 65.8277 68.2543 66.0985 68.0611 66.4545C67.8679 66.8106 67.7713 67.2424 67.7713 67.75ZM79.0852 73.1818C78.358 73.1818 77.7159 72.9981 77.1591 72.6307C76.6023 72.2595 76.1667 71.7367 75.8523 71.0625C75.5379 70.3845 75.3807 69.5833 75.3807 68.6591C75.3807 67.7424 75.5379 66.947 75.8523 66.2727C76.1667 65.5985 76.6042 65.0777 77.1648 64.7102C77.7254 64.3428 78.3731 64.1591 79.108 64.1591C79.6761 64.1591 80.125 64.2538 80.4545 64.4432C80.7879 64.6288 81.0417 64.8409 81.2159 65.0795C81.3939 65.3144 81.5322 65.5076 81.6307 65.6591H81.7443V61.3636H83.0852V73H81.7898V71.6591H81.6307C81.5322 71.8182 81.392 72.0189 81.2102 72.2614C81.0284 72.5 80.7689 72.714 80.4318 72.9034C80.0947 73.089 79.6458 73.1818 79.0852 73.1818ZM79.267 71.9773C79.8049 71.9773 80.2595 71.8371 80.6307 71.5568C81.0019 71.2727 81.2841 70.8807 81.4773 70.3807C81.6705 69.8769 81.767 69.2955 81.767 68.6364C81.767 67.9848 81.6723 67.4148 81.483 66.9261C81.2936 66.4337 81.0133 66.0511 80.642 65.7784C80.2708 65.5019 79.8125 65.3636 79.267 65.3636C78.6989 65.3636 78.2254 65.5095 77.8466 65.8011C77.4716 66.089 77.1894 66.4811 77 66.9773C76.8144 67.4697 76.7216 68.0227 76.7216 68.6364C76.7216 69.2576 76.8163 69.822 77.0057 70.3295C77.1989 70.8333 77.483 71.2348 77.858 71.5341C78.2367 71.8295 78.7064 71.9773 79.267 71.9773ZM89.3864 73.1818C88.5455 73.1818 87.8201 72.9962 87.2102 72.625C86.6042 72.25 86.1364 71.7273 85.8068 71.0568C85.4811 70.3826 85.3182 69.5985 85.3182 68.7045C85.3182 67.8106 85.4811 67.0227 85.8068 66.3409C86.1364 65.6553 86.5947 65.1212 87.1818 64.7386C87.7727 64.3523 88.4621 64.1591 89.25 64.1591C89.7045 64.1591 90.1534 64.2348 90.5966 64.3864C91.0398 64.5379 91.4432 64.7841 91.8068 65.125C92.1705 65.4621 92.4602 65.9091 92.6761 66.4659C92.892 67.0227 93 67.7083 93 68.5227V69.0909H86.2727V67.9318H91.6364C91.6364 67.4394 91.5379 67 91.3409 66.6136C91.1477 66.2273 90.8712 65.9223 90.5114 65.6989C90.1553 65.4754 89.7348 65.3636 89.25 65.3636C88.7159 65.3636 88.2538 65.4962 87.8636 65.7614C87.4773 66.0227 87.1799 66.3636 86.9716 66.7841C86.7633 67.2045 86.6591 67.6553 86.6591 68.1364V68.9091C86.6591 69.5682 86.7727 70.1269 87 70.5852C87.2311 71.0398 87.5511 71.3864 87.9602 71.625C88.3693 71.8598 88.8447 71.9773 89.3864 71.9773C89.7386 71.9773 90.0568 71.928 90.3409 71.8295C90.6288 71.7273 90.8769 71.5758 91.0852 71.375C91.2936 71.1705 91.4545 70.9167 91.5682 70.6136L92.8636 70.9773C92.7273 71.4167 92.4981 71.803 92.1761 72.1364C91.8542 72.4659 91.4564 72.7235 90.983 72.9091C90.5095 73.0909 89.9773 73.1818 89.3864 73.1818ZM95.0398 73V64.2727H96.3352V65.5909H96.4261C96.5852 65.1591 96.8731 64.8087 97.2898 64.5398C97.7064 64.2708 98.1761 64.1364 98.6989 64.1364C98.7973 64.1364 98.9205 64.1383 99.0682 64.142C99.2159 64.1458 99.3277 64.1515 99.4034 64.1591V65.5227C99.358 65.5114 99.2538 65.4943 99.0909 65.4716C98.9318 65.4451 98.7633 65.4318 98.5852 65.4318C98.161 65.4318 97.7822 65.5208 97.4489 65.6989C97.1193 65.8731 96.858 66.1155 96.6648 66.4261C96.4754 66.733 96.3807 67.0833 96.3807 67.4773V73H95.0398ZM101.97 73.0909C101.69 73.0909 101.449 72.9905 101.249 72.7898C101.048 72.589 100.947 72.3485 100.947 72.0682C100.947 71.7879 101.048 71.5473 101.249 71.3466C101.449 71.1458 101.69 71.0455 101.97 71.0455C102.25 71.0455 102.491 71.1458 102.692 71.3466C102.893 71.5473 102.993 71.7879 102.993 72.0682C102.993 72.2538 102.946 72.4242 102.851 72.5795C102.76 72.7348 102.637 72.8598 102.482 72.9545C102.33 73.0455 102.16 73.0909 101.97 73.0909ZM101.97 66.6136C101.69 66.6136 101.449 66.5133 101.249 66.3125C101.048 66.1117 100.947 65.8712 100.947 65.5909C100.947 65.3106 101.048 65.0701 101.249 64.8693C101.449 64.6686 101.69 64.5682 101.97 64.5682C102.25 64.5682 102.491 64.6686 102.692 64.8693C102.893 65.0701 102.993 65.3106 102.993 65.5909C102.993 65.7765 102.946 65.947 102.851 66.1023C102.76 66.2576 102.637 66.3826 102.482 66.4773C102.33 66.5682 102.16 66.6136 101.97 66.6136Z" fill="white"/>
<path d="M45.4091 85.3636H47.0909L51.0455 95.0227H51.1818L55.1364 85.3636H56.8182V97H55.5V88.1591H55.3864L51.75 97H50.4773L46.8409 88.1591H46.7273V97H45.4091V85.3636ZM62.0298 97.2045C61.4768 97.2045 60.9749 97.1004 60.5241 96.892C60.0734 96.6799 59.7154 96.375 59.4503 95.9773C59.1851 95.5758 59.0526 95.0909 59.0526 94.5227C59.0526 94.0227 59.151 93.6174 59.348 93.3068C59.545 92.9924 59.8082 92.7462 60.1378 92.5682C60.4673 92.3902 60.831 92.2576 61.2287 92.1705C61.6302 92.0795 62.0336 92.0076 62.4389 91.9545C62.9692 91.8864 63.3991 91.8352 63.7287 91.8011C64.062 91.7633 64.3045 91.7008 64.456 91.6136C64.6113 91.5265 64.6889 91.375 64.6889 91.1591V91.1136C64.6889 90.553 64.5355 90.1174 64.2287 89.8068C63.9257 89.4962 63.4654 89.3409 62.848 89.3409C62.2079 89.3409 61.706 89.4811 61.3423 89.7614C60.9787 90.0417 60.723 90.3409 60.5753 90.6591L59.3026 90.2045C59.5298 89.6742 59.8329 89.2614 60.2116 88.9659C60.5942 88.6667 61.0109 88.4583 61.4616 88.3409C61.9162 88.2197 62.3632 88.1591 62.8026 88.1591C63.0829 88.1591 63.4048 88.1932 63.7685 88.2614C64.1359 88.3258 64.4901 88.4602 64.831 88.6648C65.1757 88.8693 65.4616 89.178 65.6889 89.5909C65.9162 90.0038 66.0298 90.5568 66.0298 91.25V97H64.6889V95.8182H64.6207C64.5298 96.0076 64.3783 96.2102 64.1662 96.4261C63.9541 96.642 63.6719 96.8258 63.3196 96.9773C62.9673 97.1288 62.5374 97.2045 62.0298 97.2045ZM62.2344 96C62.7647 96 63.2116 95.8958 63.5753 95.6875C63.9427 95.4792 64.2192 95.2102 64.4048 94.8807C64.5942 94.5511 64.6889 94.2045 64.6889 93.8409V92.6136C64.6321 92.6818 64.5071 92.7443 64.3139 92.8011C64.1245 92.8542 63.9048 92.9015 63.6548 92.9432C63.4086 92.9811 63.1681 93.0152 62.9332 93.0455C62.7022 93.072 62.5147 93.0947 62.3707 93.1136C62.0223 93.1591 61.6965 93.233 61.3935 93.3352C61.0942 93.4337 60.8518 93.5833 60.6662 93.7841C60.4844 93.9811 60.3935 94.25 60.3935 94.5909C60.3935 95.0568 60.5658 95.4091 60.9105 95.6477C61.259 95.8826 61.7003 96 62.2344 96ZM72.2727 88.2727V89.4091H67.75V88.2727H72.2727ZM69.0682 86.1818H70.4091V94.5C70.4091 94.8788 70.464 95.1629 70.5739 95.3523C70.6875 95.5379 70.8314 95.6629 71.0057 95.7273C71.1837 95.7879 71.3712 95.8182 71.5682 95.8182C71.7159 95.8182 71.8371 95.8106 71.9318 95.7955C72.0265 95.7765 72.1023 95.7614 72.1591 95.75L72.4318 96.9545C72.3409 96.9886 72.214 97.0227 72.0511 97.0568C71.8883 97.0947 71.6818 97.1136 71.4318 97.1136C71.053 97.1136 70.6818 97.0322 70.3182 96.8693C69.9583 96.7064 69.6591 96.4583 69.4205 96.125C69.1856 95.7917 69.0682 95.3712 69.0682 94.8636V86.1818ZM74.2898 97V88.2727H75.5852V89.5909H75.6761C75.8352 89.1591 76.1231 88.8087 76.5398 88.5398C76.9564 88.2708 77.4261 88.1364 77.9489 88.1364C78.0473 88.1364 78.1705 88.1383 78.3182 88.142C78.4659 88.1458 78.5777 88.1515 78.6534 88.1591V89.5227C78.608 89.5114 78.5038 89.4943 78.3409 89.4716C78.1818 89.4451 78.0133 89.4318 77.8352 89.4318C77.411 89.4318 77.0322 89.5208 76.6989 89.6989C76.3693 89.8731 76.108 90.1155 75.9148 90.4261C75.7254 90.733 75.6307 91.0833 75.6307 91.4773V97H74.2898ZM80.2429 97V88.2727H81.5838V97H80.2429ZM80.9247 86.8182C80.6634 86.8182 80.438 86.7292 80.2486 86.5511C80.063 86.3731 79.9702 86.1591 79.9702 85.9091C79.9702 85.6591 80.063 85.4451 80.2486 85.267C80.438 85.089 80.6634 85 80.9247 85C81.1861 85 81.4096 85.089 81.5952 85.267C81.7846 85.4451 81.8793 85.6591 81.8793 85.9091C81.8793 86.1591 81.7846 86.3731 81.5952 86.5511C81.4096 86.7292 81.1861 86.8182 80.9247 86.8182ZM87.5852 97.1818C86.767 97.1818 86.0625 96.9886 85.4716 96.6023C84.8807 96.2159 84.4261 95.6837 84.108 95.0057C83.7898 94.3277 83.6307 93.553 83.6307 92.6818C83.6307 91.7955 83.7936 91.0133 84.1193 90.3352C84.4489 89.6534 84.9072 89.1212 85.4943 88.7386C86.0852 88.3523 86.7746 88.1591 87.5625 88.1591C88.1761 88.1591 88.7292 88.2727 89.2216 88.5C89.714 88.7273 90.1174 89.0455 90.4318 89.4545C90.7462 89.8636 90.9413 90.3409 91.017 90.8864H89.6761C89.5739 90.4886 89.3466 90.1364 88.9943 89.8295C88.6458 89.5189 88.1761 89.3636 87.5852 89.3636C87.0625 89.3636 86.6042 89.5 86.2102 89.7727C85.8201 90.0417 85.5152 90.4223 85.2955 90.9148C85.0795 91.4034 84.9716 91.9773 84.9716 92.6364C84.9716 93.3106 85.0777 93.8977 85.2898 94.3977C85.5057 94.8977 85.8087 95.286 86.1989 95.5625C86.5928 95.839 87.0549 95.9773 87.5852 95.9773C87.9337 95.9773 88.25 95.9167 88.5341 95.7955C88.8182 95.6742 89.0587 95.5 89.2557 95.2727C89.4527 95.0455 89.5928 94.7727 89.6761 94.4545H91.017C90.9413 94.9697 90.7538 95.4337 90.4545 95.8466C90.1591 96.2557 89.767 96.5814 89.2784 96.8239C88.7936 97.0625 88.2292 97.1818 87.5852 97.1818ZM98.4773 93.4318V88.2727H99.8182V97H98.4773V95.5227H98.3864C98.1818 95.9659 97.8636 96.3428 97.4318 96.6534C97 96.9602 96.4545 97.1136 95.7955 97.1136C95.25 97.1136 94.7652 96.9943 94.3409 96.7557C93.9167 96.5133 93.5833 96.1496 93.3409 95.6648C93.0985 95.1761 92.9773 94.5606 92.9773 93.8182V88.2727H94.3182V93.7273C94.3182 94.3636 94.4962 94.8712 94.8523 95.25C95.2121 95.6288 95.6705 95.8182 96.2273 95.8182C96.5606 95.8182 96.8996 95.733 97.2443 95.5625C97.5928 95.392 97.8845 95.1307 98.1193 94.7784C98.358 94.4261 98.4773 93.9773 98.4773 93.4318ZM103.615 85.3636V97H102.274V85.3636H103.615ZM108.639 97.2045C108.086 97.2045 107.584 97.1004 107.134 96.892C106.683 96.6799 106.325 96.375 106.06 95.9773C105.795 95.5758 105.662 95.0909 105.662 94.5227C105.662 94.0227 105.76 93.6174 105.957 93.3068C106.154 92.9924 106.418 92.7462 106.747 92.5682C107.077 92.3902 107.44 92.2576 107.838 92.1705C108.24 92.0795 108.643 92.0076 109.048 91.9545C109.579 91.8864 110.009 91.8352 110.338 91.8011C110.671 91.7633 110.914 91.7008 111.065 91.6136C111.221 91.5265 111.298 91.375 111.298 91.1591V91.1136C111.298 90.553 111.145 90.1174 110.838 89.8068C110.535 89.4962 110.075 89.3409 109.457 89.3409C108.817 89.3409 108.315 89.4811 107.952 89.7614C107.588 90.0417 107.332 90.3409 107.185 90.6591L105.912 90.2045C106.139 89.6742 106.442 89.2614 106.821 88.9659C107.204 88.6667 107.62 88.4583 108.071 88.3409C108.526 88.2197 108.973 88.1591 109.412 88.1591C109.692 88.1591 110.014 88.1932 110.378 88.2614C110.745 88.3258 111.099 88.4602 111.44 88.6648C111.785 88.8693 112.071 89.178 112.298 89.5909C112.526 90.0038 112.639 90.5568 112.639 91.25V97H111.298V95.8182H111.23C111.139 96.0076 110.988 96.2102 110.776 96.4261C110.563 96.642 110.281 96.8258 109.929 96.9773C109.577 97.1288 109.147 97.2045 108.639 97.2045ZM108.844 96C109.374 96 109.821 95.8958 110.185 95.6875C110.552 95.4792 110.829 95.2102 111.014 94.8807C111.204 94.5511 111.298 94.2045 111.298 93.8409V92.6136C111.241 92.6818 111.116 92.7443 110.923 92.8011C110.734 92.8542 110.514 92.9015 110.264 92.9432C110.018 92.9811 109.777 93.0152 109.543 93.0455C109.312 93.072 109.124 93.0947 108.98 93.1136C108.632 93.1591 108.306 93.233 108.003 93.3352C107.704 93.4337 107.461 93.5833 107.276 93.7841C107.094 93.9811 107.003 94.25 107.003 94.5909C107.003 95.0568 107.175 95.4091 107.52 95.6477C107.868 95.8826 108.31 96 108.844 96ZM118.882 88.2727V89.4091H114.359V88.2727H118.882ZM115.678 86.1818H117.018V94.5C117.018 94.8788 117.073 95.1629 117.183 95.3523C117.297 95.5379 117.441 95.6629 117.615 95.7273C117.793 95.7879 117.981 95.8182 118.178 95.8182C118.325 95.8182 118.446 95.8106 118.541 95.7955C118.636 95.7765 118.712 95.7614 118.768 95.75L119.041 96.9545C118.95 96.9886 118.823 97.0227 118.661 97.0568C118.498 97.0947 118.291 97.1136 118.041 97.1136C117.662 97.1136 117.291 97.0322 116.928 96.8693C116.568 96.7064 116.268 96.4583 116.03 96.125C115.795 95.7917 115.678 95.3712 115.678 94.8636V86.1818ZM120.899 97V88.2727H122.24V97H120.899ZM121.581 86.8182C121.32 86.8182 121.094 86.7292 120.905 86.5511C120.719 86.3731 120.626 86.1591 120.626 85.9091C120.626 85.6591 120.719 85.4451 120.905 85.267C121.094 85.089 121.32 85 121.581 85C121.842 85 122.066 85.089 122.251 85.267C122.441 85.4451 122.536 85.6591 122.536 85.9091C122.536 86.1591 122.441 86.3731 122.251 86.5511C122.066 86.7292 121.842 86.8182 121.581 86.8182ZM128.241 97.1818C127.454 97.1818 126.762 96.9943 126.168 96.6193C125.577 96.2443 125.115 95.7197 124.781 95.0455C124.452 94.3712 124.287 93.5833 124.287 92.6818C124.287 91.7727 124.452 90.9792 124.781 90.3011C125.115 89.6231 125.577 89.0966 126.168 88.7216C126.762 88.3466 127.454 88.1591 128.241 88.1591C129.029 88.1591 129.719 88.3466 130.31 88.7216C130.904 89.0966 131.366 89.6231 131.696 90.3011C132.029 90.9792 132.196 91.7727 132.196 92.6818C132.196 93.5833 132.029 94.3712 131.696 95.0455C131.366 95.7197 130.904 96.2443 130.31 96.6193C129.719 96.9943 129.029 97.1818 128.241 97.1818ZM128.241 95.9773C128.84 95.9773 129.332 95.8239 129.719 95.517C130.105 95.2102 130.391 94.8068 130.577 94.3068C130.762 93.8068 130.855 93.2652 130.855 92.6818C130.855 92.0985 130.762 91.5549 130.577 91.0511C130.391 90.5473 130.105 90.1402 129.719 89.8295C129.332 89.5189 128.84 89.3636 128.241 89.3636C127.643 89.3636 127.151 89.5189 126.764 89.8295C126.378 90.1402 126.092 90.5473 125.906 91.0511C125.721 91.5549 125.628 92.0985 125.628 92.6818C125.628 93.2652 125.721 93.8068 125.906 94.3068C126.092 94.8068 126.378 95.2102 126.764 95.517C127.151 95.8239 127.643 95.9773 128.241 95.9773ZM140.266 97V98.25H132.993V97H140.266ZM150.886 85.3636V97H149.523L143.182 87.8636H143.068V97H141.659V85.3636H143.023L149.386 94.5227H149.5V85.3636H150.886ZM157.07 97.1818C156.282 97.1818 155.59 96.9943 154.996 96.6193C154.405 96.2443 153.943 95.7197 153.609 95.0455C153.28 94.3712 153.115 93.5833 153.115 92.6818C153.115 91.7727 153.28 90.9792 153.609 90.3011C153.943 89.6231 154.405 89.0966 154.996 88.7216C155.59 88.3466 156.282 88.1591 157.07 88.1591C157.857 88.1591 158.547 88.3466 159.138 88.7216C159.732 89.0966 160.195 89.6231 160.524 90.3011C160.857 90.9792 161.024 91.7727 161.024 92.6818C161.024 93.5833 160.857 94.3712 160.524 95.0455C160.195 95.7197 159.732 96.2443 159.138 96.6193C158.547 96.9943 157.857 97.1818 157.07 97.1818ZM157.07 95.9773C157.668 95.9773 158.161 95.8239 158.547 95.517C158.933 95.2102 159.219 94.8068 159.405 94.3068C159.59 93.8068 159.683 93.2652 159.683 92.6818C159.683 92.0985 159.59 91.5549 159.405 91.0511C159.219 90.5473 158.933 90.1402 158.547 89.8295C158.161 89.5189 157.668 89.3636 157.07 89.3636C156.471 89.3636 155.979 89.5189 155.592 89.8295C155.206 90.1402 154.92 90.5473 154.734 91.0511C154.549 91.5549 154.456 92.0985 154.456 92.6818C154.456 93.2652 154.549 93.8068 154.734 94.3068C154.92 94.8068 155.206 95.2102 155.592 95.517C155.979 95.8239 156.471 95.9773 157.07 95.9773ZM164.048 97.0909C163.768 97.0909 163.527 96.9905 163.327 96.7898C163.126 96.589 163.026 96.3485 163.026 96.0682C163.026 95.7879 163.126 95.5473 163.327 95.3466C163.527 95.1458 163.768 95.0455 164.048 95.0455C164.329 95.0455 164.569 95.1458 164.77 95.3466C164.971 95.5473 165.071 95.7879 165.071 96.0682C165.071 96.2538 165.024 96.4242 164.929 96.5795C164.838 96.7348 164.715 96.8598 164.56 96.9545C164.408 97.0455 164.238 97.0909 164.048 97.0909ZM164.048 90.6136C163.768 90.6136 163.527 90.5133 163.327 90.3125C163.126 90.1117 163.026 89.8712 163.026 89.5909C163.026 89.3106 163.126 89.0701 163.327 88.8693C163.527 88.6686 163.768 88.5682 164.048 88.5682C164.329 88.5682 164.569 88.6686 164.77 88.8693C164.971 89.0701 165.071 89.3106 165.071 89.5909C165.071 89.7765 165.024 89.947 164.929 90.1023C164.838 90.2576 164.715 90.3826 164.56 90.4773C164.408 90.5682 164.238 90.6136 164.048 90.6136Z" fill="white"/>
<path d="M200 208C200 180.386 222.386 158 250 158V158C277.614 158 300 180.386 300 208V208C300 235.614 277.614 258 250 258V258C222.386 258 200 235.614 200 208V208Z" fill="#D9D9D9" fill-opacity="0.35"/>
</svg>
